<svg width="142" height="102" viewBox="0 0 142 102" fill="none" xmlns="http://www.w3.org/2000/svg">
<g id="Group 15">
<path id="Vector" d="M9.00002 9.00456C11.8539 6.14982 15.2422 3.88527 18.9715 2.34024C22.7007 0.795222 26.6977 0 30.7344 0C34.771 0 38.768 0.795222 42.4973 2.34024C46.2265 3.88527 49.6148 6.14982 52.4687 9.00456L92.4308 48.9758C95.2844 51.83 97.5479 55.2183 99.092 58.9472C100.636 62.6762 101.431 66.6728 101.43 70.7088C101.43 74.7448 100.634 78.7412 99.0896 82.4698C97.5447 86.1985 95.2805 89.5863 92.4263 92.4399C89.5721 95.2935 86.1838 97.557 82.4548 99.1011C78.7259 100.645 74.7293 101.44 70.6933 101.439C62.5422 101.438 54.7252 98.1997 48.9621 92.4354L9.00002 52.4642C3.23737 46.7008 0 38.8845 0 30.7344C0 22.5843 3.23737 14.7679 9.00002 9.00456ZM16.5855 16.59C8.59122 24.5842 8.59122 37.5658 16.5855 45.5691L55.8572 84.8499C59.7 88.6928 64.9121 90.8517 70.3467 90.8517C75.7814 90.8517 80.9934 88.6928 84.8363 84.8499C88.6792 81.007 90.8381 75.795 90.8381 70.3604C90.8381 64.9257 88.6792 59.7137 84.8363 55.8708L45.5646 16.59C43.6622 14.6865 41.4034 13.1765 38.9172 12.1462C36.431 11.116 33.7662 10.5857 31.075 10.5857C28.3838 10.5857 25.719 11.116 23.2328 12.1462C20.7467 13.1765 18.4879 14.6865 16.5855 16.59Z" fill="white"/>
<path id="Vector_2" d="M132.438 9.00405C135.293 11.8579 137.557 15.2463 139.102 18.9755C140.647 22.7047 141.443 26.7018 141.443 30.7384C141.443 34.775 140.647 38.7721 139.102 42.5013C137.557 46.2305 135.293 49.6188 132.438 52.4727L92.4668 92.4348C89.6126 95.2884 86.2243 97.5519 82.4953 99.096C78.7663 100.64 74.7698 101.435 70.7337 101.434C66.6977 101.434 62.7013 100.638 58.9727 99.0936C55.244 97.5487 51.8562 95.2845 49.0026 92.4303C46.149 89.5761 43.8855 86.1878 42.3414 82.4588C40.7973 78.7299 40.0028 74.7333 40.0032 70.6973C40.0036 66.6613 40.799 62.6649 42.3439 58.9362C43.8888 55.2076 46.153 51.8198 49.0072 48.9662L88.9784 9.00405C94.7417 3.24139 102.558 0.00402832 110.708 0.00402832C118.858 0.00402832 126.675 3.24139 132.438 9.00405ZM124.853 16.5895C122.95 14.686 120.691 13.1759 118.205 12.1457C115.719 11.1155 113.054 10.5852 110.363 10.5852C107.672 10.5852 105.007 11.1155 102.521 12.1457C100.035 13.1759 97.7758 14.686 95.8734 16.5895L56.5926 55.8703C52.7497 59.7131 50.5908 64.9252 50.5908 70.3598C50.5908 75.7945 52.7497 81.0065 56.5926 84.8494C60.4355 88.6923 65.6475 90.8512 71.0822 90.8512C76.5168 90.8512 81.7289 88.6923 85.5717 84.8494L124.853 45.5686C132.847 37.5653 132.847 24.5837 124.853 16.5895Z" fill="white"/>
</g>
</svg>
